<svg width="406" height="192" viewBox="0 0 406 192" fill="none" xmlns="http://www.w3.org/2000/svg">
<path opacity="0.2" d="M7.20204 0C9.51759 0 11.3053 0.882917 12.5653 2.64874C13.8252 4.36929 14.4552 6.54262 14.4552 9.16873C14.4552 11.7496 13.8252 13.9003 12.5653 15.6208C11.3053 17.2961 9.51759 18.1337 7.20204 18.1337C4.98864 18.1337 3.23496 17.2961 1.94098 15.6208C0.646994 13.9455 0 11.7948 0 9.16873C0 6.54262 0.629966 4.36929 1.8899 2.64874C3.14984 0.882917 4.92055 0 7.20204 0ZM46.3566 0C48.6721 0 50.4599 0.882917 51.7197 2.64874C52.9798 4.36929 53.6097 6.54262 53.6097 9.16873C53.6097 11.7496 52.9798 13.9003 51.7197 15.6208C50.4599 17.2961 48.6721 18.1337 46.3566 18.1337C44.1433 18.1337 42.3896 17.2961 41.0955 15.6208C39.8016 13.9455 39.1545 11.7948 39.1545 9.16873C39.1545 6.54262 39.7846 4.36929 41.0445 2.64874C42.3043 0.882917 44.0751 0 46.3566 0ZM85.5111 0C87.8266 0 89.6145 0.882917 90.8744 2.64874C92.1343 4.36929 92.7643 6.54262 92.7643 9.16873C92.7643 11.7496 92.1343 13.9003 90.8744 15.6208C89.6145 17.2961 87.8266 18.1337 85.5111 18.1337C83.2977 18.1337 81.544 17.2961 80.2501 15.6208C78.956 13.9455 78.3092 11.7948 78.3092 9.16873C78.3092 6.54262 78.939 4.36929 80.1989 2.64874C81.459 0.882917 83.2297 0 85.5111 0ZM124.666 0C126.981 0 128.769 0.882917 130.029 2.64874C131.289 4.36929 131.919 6.54262 131.919 9.16873C131.919 11.7496 131.289 13.9003 130.029 15.6208C128.769 17.2961 126.981 18.1337 124.666 18.1337C122.452 18.1337 120.699 17.2961 119.405 15.6208C118.111 13.9455 117.464 11.7948 117.464 9.16873C117.464 6.54262 118.094 4.36929 119.354 2.64874C120.613 0.882917 122.384 0 124.666 0ZM163.82 0C166.136 0 167.924 0.882917 169.184 2.64874C170.443 4.36929 171.073 6.54262 171.073 9.16873C171.073 11.7496 170.443 13.9003 169.184 15.6208C167.924 17.2961 166.136 18.1337 163.82 18.1337C161.607 18.1337 159.853 17.2961 158.559 15.6208C157.265 13.9455 156.618 11.7948 156.618 9.16873C156.618 6.54262 157.248 4.36929 158.508 2.64874C159.768 0.882917 161.539 0 163.82 0ZM202.975 0C205.29 0 207.078 0.882917 208.338 2.64874C209.598 4.36929 210.228 6.54262 210.228 9.16873C210.228 11.7496 209.598 13.9003 208.338 15.6208C207.078 17.2961 205.29 18.1337 202.975 18.1337C200.762 18.1337 199.008 17.2961 197.714 15.6208C196.42 13.9455 195.773 11.7948 195.773 9.16873C195.773 6.54262 196.403 4.36929 197.663 2.64874C198.923 0.882917 200.693 0 202.975 0ZM242.129 0C244.446 0 246.233 0.882917 247.492 2.64874C248.752 4.36929 249.382 6.54262 249.382 9.16873C249.382 11.7496 248.752 13.9003 247.492 15.6208C246.233 17.2961 244.446 18.1337 242.129 18.1337C239.917 18.1337 238.162 17.2961 236.868 15.6208C235.573 13.9455 234.928 11.7948 234.928 9.16873C234.928 6.54262 235.558 4.36929 236.818 2.64874C238.077 0.882917 239.847 0 242.129 0ZM281.283 0C283.6 0 285.387 0.882917 286.646 2.64874C287.908 4.36929 288.538 6.54262 288.538 9.16873C288.538 11.7496 287.908 13.9003 286.646 15.6208C285.387 17.2961 283.6 18.1337 281.283 18.1337C279.071 18.1337 277.316 17.2961 276.022 15.6208C274.73 13.9455 274.082 11.7948 274.082 9.16873C274.082 6.54262 274.712 4.36929 275.972 2.64874C277.232 0.882917 279.003 0 281.283 0ZM320.439 0C322.754 0 324.543 0.882917 325.802 2.64874C327.062 4.36929 327.692 6.54262 327.692 9.16873C327.692 11.7496 327.062 13.9003 325.802 15.6208C324.543 17.2961 322.754 18.1337 320.439 18.1337C318.225 18.1337 316.471 17.2961 315.178 15.6208C313.884 13.9455 313.236 11.7948 313.236 9.16873C313.236 6.54262 313.866 4.36929 315.126 2.64874C316.386 0.882917 318.157 0 320.439 0ZM359.593 0C361.908 0 363.697 0.882917 364.956 2.64874C366.216 4.36929 366.846 6.54262 366.846 9.16873C366.846 11.7496 366.216 13.9003 364.956 15.6208C363.697 17.2961 361.908 18.1337 359.593 18.1337C357.379 18.1337 355.627 17.2961 354.332 15.6208C353.038 13.9455 352.39 11.7948 352.39 9.16873C352.39 6.54262 353.02 4.36929 354.28 2.64874C355.542 0.882917 357.311 0 359.593 0ZM398.747 0C401.064 0 402.851 0.882917 404.111 2.64874C405.37 4.36929 406 6.54262 406 9.16873C406 11.7496 405.37 13.9003 404.111 15.6208C402.851 17.2961 401.064 18.1337 398.747 18.1337C396.535 18.1337 394.781 17.2961 393.486 15.6208C392.192 13.9455 391.547 11.7948 391.547 9.16873C391.547 6.54262 392.176 4.36929 393.436 2.64874C394.696 0.882917 396.465 0 398.747 0ZM7.20204 57.9554C9.51759 57.9554 11.3053 58.8384 12.5653 60.6043C13.8252 62.3247 14.4552 64.498 14.4552 67.1243C14.4552 69.705 13.8252 71.8558 12.5653 73.5762C11.3053 75.2517 9.51759 76.0891 7.20204 76.0891C4.98864 76.0891 3.23496 75.2517 1.94098 73.5762C0.646994 71.901 0 69.7502 0 67.1243C0 64.498 0.629966 62.3247 1.8899 60.6043C3.14984 58.8384 4.92055 57.9554 7.20204 57.9554ZM46.3566 57.9554C48.6721 57.9554 50.4599 58.8384 51.7197 60.6043C52.9798 62.3247 53.6097 64.498 53.6097 67.1243C53.6097 69.705 52.9798 71.8558 51.7197 73.5762C50.4599 75.2517 48.6721 76.0891 46.3566 76.0891C44.1433 76.0891 42.3896 75.2517 41.0955 73.5762C39.8016 71.901 39.1545 69.7502 39.1545 67.1243C39.1545 64.498 39.7846 62.3247 41.0445 60.6043C42.3043 58.8384 44.0751 57.9554 46.3566 57.9554ZM85.5111 57.9554C87.8266 57.9554 89.6145 58.8384 90.8744 60.6043C92.1343 62.3247 92.7643 64.498 92.7643 67.1243C92.7643 69.705 92.1343 71.8558 90.8744 73.5762C89.6145 75.2517 87.8266 76.0891 85.5111 76.0891C83.2977 76.0891 81.544 75.2517 80.2501 73.5762C78.956 71.901 78.3092 69.7502 78.3092 67.1243C78.3092 64.498 78.939 62.3247 80.1989 60.6043C81.459 58.8384 83.2297 57.9554 85.5111 57.9554ZM124.666 57.9554C126.981 57.9554 128.769 58.8384 130.029 60.6043C131.289 62.3247 131.919 64.498 131.919 67.1243C131.919 69.705 131.289 71.8558 130.029 73.5762C128.769 75.2517 126.981 76.0891 124.666 76.0891C122.452 76.0891 120.699 75.2517 119.405 73.5762C118.111 71.901 117.464 69.7502 117.464 67.1243C117.464 64.498 118.094 62.3247 119.354 60.6043C120.613 58.8384 122.384 57.9554 124.666 57.9554ZM163.82 57.9554C166.136 57.9554 167.924 58.8384 169.184 60.6043C170.443 62.3247 171.073 64.498 171.073 67.1243C171.073 69.705 170.443 71.8558 169.184 73.5762C167.924 75.2517 166.136 76.0891 163.82 76.0891C161.607 76.0891 159.853 75.2517 158.559 73.5762C157.265 71.901 156.618 69.7502 156.618 67.1243C156.618 64.498 157.248 62.3247 158.508 60.6043C159.768 58.8384 161.539 57.9554 163.82 57.9554ZM202.975 57.9554C205.29 57.9554 207.078 58.8384 208.338 60.6043C209.598 62.3247 210.228 64.498 210.228 67.1243C210.228 69.705 209.598 71.8558 208.338 73.5762C207.078 75.2517 205.29 76.0891 202.975 76.0891C200.762 76.0891 199.008 75.2517 197.714 73.5762C196.42 71.901 195.773 69.7502 195.773 67.1243C195.773 64.498 196.403 62.3247 197.663 60.6043C198.923 58.8384 200.693 57.9554 202.975 57.9554ZM242.129 57.9554C244.446 57.9554 246.233 58.8384 247.492 60.6043C248.752 62.3247 249.382 64.498 249.382 67.1243C249.382 69.705 248.752 71.8558 247.492 73.5762C246.233 75.2517 244.446 76.0891 242.129 76.0891C239.917 76.0891 238.162 75.2517 236.868 73.5762C235.573 71.901 234.928 69.7502 234.928 67.1243C234.928 64.498 235.558 62.3247 236.818 60.6043C238.077 58.8384 239.847 57.9554 242.129 57.9554ZM281.283 57.9554C283.6 57.9554 285.387 58.8384 286.646 60.6043C287.908 62.3247 288.538 64.498 288.538 67.1243C288.538 69.705 287.908 71.8558 286.646 73.5762C285.387 75.2517 283.6 76.0891 281.283 76.0891C279.071 76.0891 277.316 75.2517 276.022 73.5762C274.73 71.901 274.082 69.7502 274.082 67.1243C274.082 64.498 274.712 62.3247 275.972 60.6043C277.232 58.8384 279.003 57.9554 281.283 57.9554ZM320.439 57.9554C322.754 57.9554 324.543 58.8384 325.802 60.6043C327.062 62.3247 327.692 64.498 327.692 67.1243C327.692 69.705 327.062 71.8558 325.802 73.5762C324.543 75.2517 322.754 76.0891 320.439 76.0891C318.225 76.0891 316.471 75.2517 315.178 73.5762C313.884 71.901 313.236 69.7502 313.236 67.1243C313.236 64.498 313.866 62.3247 315.126 60.6043C316.386 58.8384 318.157 57.9554 320.439 57.9554ZM359.593 57.9554C361.908 57.9554 363.697 58.8384 364.956 60.6043C366.216 62.3247 366.846 64.498 366.846 67.1243C366.846 69.705 366.216 71.8558 364.956 73.5762C363.697 75.2517 361.908 76.0891 359.593 76.0891C357.379 76.0891 355.627 75.2517 354.332 73.5762C353.038 71.901 352.39 69.7502 352.39 67.1243C352.39 64.498 353.02 62.3247 354.28 60.6043C355.542 58.8384 357.311 57.9554 359.593 57.9554ZM398.747 57.9554C401.064 57.9554 402.851 58.8384 404.111 60.6043C405.37 62.3247 406 64.498 406 67.1243C406 69.705 405.37 71.8558 404.111 73.5762C402.851 75.2517 401.064 76.0891 398.747 76.0891C396.535 76.0891 394.781 75.2517 393.486 73.5762C392.192 71.901 391.547 69.7502 391.547 67.1243C391.547 64.498 392.176 62.3247 393.436 60.6043C394.696 58.8384 396.465 57.9554 398.747 57.9554ZM7.20204 115.911C9.51759 115.911 11.3053 116.794 12.5653 118.56C13.8252 120.28 14.4552 122.453 14.4552 125.08C14.4552 127.66 13.8252 129.811 12.5653 131.532C11.3053 133.207 9.51759 134.045 7.20204 134.045C4.98864 134.045 3.23496 133.207 1.94098 131.532C0.646994 129.856 0 127.706 0 125.08C0 122.453 0.629966 120.28 1.8899 118.56C3.14984 116.794 4.92055 115.911 7.20204 115.911ZM46.3566 115.911C48.6721 115.911 50.4599 116.794 51.7197 118.56C52.9798 120.28 53.6097 122.453 53.6097 125.08C53.6097 127.66 52.9798 129.811 51.7197 131.532C50.4599 133.207 48.6721 134.045 46.3566 134.045C44.1433 134.045 42.3896 133.207 41.0955 131.532C39.8016 129.856 39.1545 127.706 39.1545 125.08C39.1545 122.453 39.7846 120.28 41.0445 118.56C42.3043 116.794 44.0751 115.911 46.3566 115.911ZM85.5111 115.911C87.8266 115.911 89.6145 116.794 90.8744 118.56C92.1343 120.28 92.7643 122.453 92.7643 125.08C92.7643 127.66 92.1343 129.811 90.8744 131.532C89.6145 133.207 87.8266 134.045 85.5111 134.045C83.2977 134.045 81.544 133.207 80.2501 131.532C78.956 129.856 78.3092 127.706 78.3092 125.08C78.3092 122.453 78.939 120.28 80.1989 118.56C81.459 116.794 83.2297 115.911 85.5111 115.911ZM124.666 115.911C126.981 115.911 128.769 116.794 130.029 118.56C131.289 120.28 131.919 122.453 131.919 125.08C131.919 127.66 131.289 129.811 130.029 131.532C128.769 133.207 126.981 134.045 124.666 134.045C122.452 134.045 120.699 133.207 119.405 131.532C118.111 129.856 117.464 127.706 117.464 125.08C117.464 122.453 118.094 120.28 119.354 118.56C120.613 116.794 122.384 115.911 124.666 115.911ZM163.82 115.911C166.136 115.911 167.924 116.794 169.184 118.56C170.443 120.28 171.073 122.453 171.073 125.08C171.073 127.66 170.443 129.811 169.184 131.532C167.924 133.207 166.136 134.045 163.82 134.045C161.607 134.045 159.853 133.207 158.559 131.532C157.265 129.856 156.618 127.706 156.618 125.08C156.618 122.453 157.248 120.28 158.508 118.56C159.768 116.794 161.539 115.911 163.82 115.911ZM202.975 115.911C205.29 115.911 207.078 116.794 208.338 118.56C209.598 120.28 210.228 122.453 210.228 125.08C210.228 127.66 209.598 129.811 208.338 131.532C207.078 133.207 205.29 134.045 202.975 134.045C200.762 134.045 199.008 133.207 197.714 131.532C196.42 129.856 195.773 127.706 195.773 125.08C195.773 122.453 196.403 120.28 197.663 118.56C198.923 116.794 200.693 115.911 202.975 115.911ZM242.129 115.911C244.446 115.911 246.233 116.794 247.492 118.56C248.752 120.28 249.382 122.453 249.382 125.08C249.382 127.66 248.752 129.811 247.492 131.532C246.233 133.207 244.446 134.045 242.129 134.045C239.917 134.045 238.162 133.207 236.868 131.532C235.573 129.856 234.928 127.706 234.928 125.08C234.928 122.453 235.558 120.28 236.818 118.56C238.077 116.794 239.847 115.911 242.129 115.911ZM281.283 115.911C283.6 115.911 285.387 116.794 286.646 118.56C287.908 120.28 288.538 122.453 288.538 125.08C288.538 127.66 287.908 129.811 286.646 131.532C285.387 133.207 283.6 134.045 281.283 134.045C279.071 134.045 277.316 133.207 276.022 131.532C274.73 129.856 274.082 127.706 274.082 125.08C274.082 122.453 274.712 120.28 275.972 118.56C277.232 116.794 279.003 115.911 281.283 115.911ZM320.439 115.911C322.754 115.911 324.543 116.794 325.802 118.56C327.062 120.28 327.692 122.453 327.692 125.08C327.692 127.66 327.062 129.811 325.802 131.532C324.543 133.207 322.754 134.045 320.439 134.045C318.225 134.045 316.471 133.207 315.178 131.532C313.884 129.856 313.236 127.706 313.236 125.08C313.236 122.453 313.866 120.28 315.126 118.56C316.386 116.794 318.157 115.911 320.439 115.911ZM359.593 115.911C361.908 115.911 363.697 116.794 364.956 118.56C366.216 120.28 366.846 122.453 366.846 125.08C366.846 127.66 366.216 129.811 364.956 131.532C363.697 133.207 361.908 134.045 359.593 134.045C357.379 134.045 355.627 133.207 354.332 131.532C353.038 129.856 352.39 127.706 352.39 125.08C352.39 122.453 353.02 120.28 354.28 118.56C355.542 116.794 357.311 115.911 359.593 115.911ZM398.747 115.911C401.064 115.911 402.851 116.794 404.111 118.56C405.37 120.28 406 122.453 406 125.08C406 127.66 405.37 129.811 404.111 131.532C402.851 133.207 401.064 134.045 398.747 134.045C396.535 134.045 394.781 133.207 393.486 131.532C392.192 129.856 391.547 127.706 391.547 125.08C391.547 122.453 392.176 120.28 393.436 118.56C394.696 116.794 396.465 115.911 398.747 115.911ZM7.20204 173.866C9.51759 173.866 11.3053 174.749 12.5653 176.515C13.8252 178.236 14.4552 180.409 14.4552 183.035C14.4552 185.616 13.8252 187.767 12.5653 189.487C11.3053 191.163 9.51759 192 7.20204 192C4.98864 192 3.23496 191.163 1.94098 189.487C0.646994 187.812 0 185.661 0 183.035C0 180.409 0.629966 178.236 1.8899 176.515C3.14984 174.749 4.92055 173.866 7.20204 173.866ZM46.3566 173.866C48.6721 173.866 50.4599 174.749 51.7197 176.515C52.9798 178.236 53.6097 180.409 53.6097 183.035C53.6097 185.616 52.9798 187.767 51.7197 189.487C50.4599 191.163 48.6721 192 46.3566 192C44.1433 192 42.3896 191.163 41.0955 189.487C39.8016 187.812 39.1545 185.661 39.1545 183.035C39.1545 180.409 39.7846 178.236 41.0445 176.515C42.3043 174.749 44.0751 173.866 46.3566 173.866ZM85.5111 173.866C87.8266 173.866 89.6145 174.749 90.8744 176.515C92.1343 178.236 92.7643 180.409 92.7643 183.035C92.7643 185.616 92.1343 187.767 90.8744 189.487C89.6145 191.163 87.8266 192 85.5111 192C83.2977 192 81.544 191.163 80.2501 189.487C78.956 187.812 78.3092 185.661 78.3092 183.035C78.3092 180.409 78.939 178.236 80.1989 176.515C81.459 174.749 83.2297 173.866 85.5111 173.866ZM124.666 173.866C126.981 173.866 128.769 174.749 130.029 176.515C131.289 178.236 131.919 180.409 131.919 183.035C131.919 185.616 131.289 187.767 130.029 189.487C128.769 191.163 126.981 192 124.666 192C122.452 192 120.699 191.163 119.405 189.487C118.111 187.812 117.464 185.661 117.464 183.035C117.464 180.409 118.094 178.236 119.354 176.515C120.613 174.749 122.384 173.866 124.666 173.866ZM163.82 173.866C166.136 173.866 167.924 174.749 169.184 176.515C170.443 178.236 171.073 180.409 171.073 183.035C171.073 185.616 170.443 187.767 169.184 189.487C167.924 191.163 166.136 192 163.82 192C161.607 192 159.853 191.163 158.559 189.487C157.265 187.812 156.618 185.661 156.618 183.035C156.618 180.409 157.248 178.236 158.508 176.515C159.768 174.749 161.539 173.866 163.82 173.866ZM202.975 173.866C205.29 173.866 207.078 174.749 208.338 176.515C209.598 178.236 210.228 180.409 210.228 183.035C210.228 185.616 209.598 187.767 208.338 189.487C207.078 191.163 205.29 192 202.975 192C200.762 192 199.008 191.163 197.714 189.487C196.42 187.812 195.773 185.661 195.773 183.035C195.773 180.409 196.403 178.236 197.663 176.515C198.923 174.749 200.693 173.866 202.975 173.866ZM242.129 173.866C244.446 173.866 246.233 174.749 247.492 176.515C248.752 178.236 249.382 180.409 249.382 183.035C249.382 185.616 248.752 187.767 247.492 189.487C246.233 191.163 244.446 192 242.129 192C239.917 192 238.162 191.163 236.868 189.487C235.573 187.812 234.928 185.661 234.928 183.035C234.928 180.409 235.558 178.236 236.818 176.515C238.077 174.749 239.847 173.866 242.129 173.866ZM281.283 173.866C283.6 173.866 285.387 174.749 286.646 176.515C287.908 178.236 288.538 180.409 288.538 183.035C288.538 185.616 287.908 187.767 286.646 189.487C285.387 191.163 283.6 192 281.283 192C279.071 192 277.316 191.163 276.022 189.487C274.73 187.812 274.082 185.661 274.082 183.035C274.082 180.409 274.712 178.236 275.972 176.515C277.232 174.749 279.003 173.866 281.283 173.866ZM320.439 173.866C322.754 173.866 324.543 174.749 325.802 176.515C327.062 178.236 327.692 180.409 327.692 183.035C327.692 185.616 327.062 187.767 325.802 189.487C324.543 191.163 322.754 192 320.439 192C318.225 192 316.471 191.163 315.178 189.487C313.884 187.812 313.236 185.661 313.236 183.035C313.236 180.409 313.866 178.236 315.126 176.515C316.386 174.749 318.157 173.866 320.439 173.866ZM359.593 173.866C361.908 173.866 363.697 174.749 364.956 176.515C366.216 178.236 366.846 180.409 366.846 183.035C366.846 185.616 366.216 187.767 364.956 189.487C363.697 191.163 361.908 192 359.593 192C357.379 192 355.627 191.163 354.332 189.487C353.038 187.812 352.39 185.661 352.39 183.035C352.39 180.409 353.02 178.236 354.28 176.515C355.542 174.749 357.311 173.866 359.593 173.866ZM398.747 173.866C401.064 173.866 402.851 174.749 404.111 176.515C405.37 178.236 406 180.409 406 183.035C406 185.616 405.37 187.767 404.111 189.487C402.851 191.163 401.064 192 398.747 192C396.535 192 394.781 191.163 393.486 189.487C392.192 187.812 391.547 185.661 391.547 183.035C391.547 180.409 392.176 178.236 393.436 176.515C394.696 174.749 396.465 173.866 398.747 173.866Z" fill="url(#paint0_linear)"/>
<defs>
<linearGradient id="paint0_linear" x1="406" y1="143.809" x2="-0.00572513" y2="149.931" gradientUnits="userSpaceOnUse">
<stop stop-color="white"/>
<stop offset="1" stop-color="white" stop-opacity="0"/>
</linearGradient>
</defs>
</svg>
