<svg width="196" height="99" viewBox="0 0 196 99" fill="none" xmlns="http://www.w3.org/2000/svg">
<path opacity="0.2" d="M6.46875 20C7.53125 20 8.35156 20.3047 8.92969 20.9141C9.50781 21.5078 9.79688 22.2578 9.79688 23.1641C9.79688 24.0547 9.50781 24.7969 8.92969 25.3906C8.35156 25.9688 7.53125 26.2578 6.46875 26.2578C5.45312 26.2578 4.64844 25.9688 4.05469 25.3906C3.46094 24.8125 3.16406 24.0703 3.16406 23.1641C3.16406 22.2578 3.45312 21.5078 4.03125 20.9141C4.60938 20.3047 5.42188 20 6.46875 20ZM24.435 20C25.4975 20 26.3178 20.3047 26.8959 20.9141C27.4741 21.5078 27.7631 22.2578 27.7631 23.1641C27.7631 24.0547 27.4741 24.7969 26.8959 25.3906C26.3178 25.9688 25.4975 26.2578 24.435 26.2578C23.4194 26.2578 22.6147 25.9688 22.0209 25.3906C21.4272 24.8125 21.1303 24.0703 21.1303 23.1641C21.1303 22.2578 21.4194 21.5078 21.9975 20.9141C22.5756 20.3047 23.3881 20 24.435 20ZM42.4012 20C43.4637 20 44.2841 20.3047 44.8622 20.9141C45.4403 21.5078 45.7294 22.2578 45.7294 23.1641C45.7294 24.0547 45.4403 24.7969 44.8622 25.3906C44.2841 25.9688 43.4637 26.2578 42.4012 26.2578C41.3856 26.2578 40.5809 25.9688 39.9872 25.3906C39.3934 24.8125 39.0966 24.0703 39.0966 23.1641C39.0966 22.2578 39.3856 21.5078 39.9637 20.9141C40.5419 20.3047 41.3544 20 42.4012 20ZM60.3675 20C61.43 20 62.2503 20.3047 62.8284 20.9141C63.4066 21.5078 63.6956 22.2578 63.6956 23.1641C63.6956 24.0547 63.4066 24.7969 62.8284 25.3906C62.2503 25.9688 61.43 26.2578 60.3675 26.2578C59.3519 26.2578 58.5472 25.9688 57.9534 25.3906C57.3597 24.8125 57.0628 24.0703 57.0628 23.1641C57.0628 22.2578 57.3519 21.5078 57.93 20.9141C58.5081 20.3047 59.3206 20 60.3675 20ZM78.3337 20C79.3962 20 80.2166 20.3047 80.7947 20.9141C81.3728 21.5078 81.6619 22.2578 81.6619 23.1641C81.6619 24.0547 81.3728 24.7969 80.7947 25.3906C80.2166 25.9688 79.3962 26.2578 78.3337 26.2578C77.3181 26.2578 76.5134 25.9688 75.9197 25.3906C75.3259 24.8125 75.0291 24.0703 75.0291 23.1641C75.0291 22.2578 75.3181 21.5078 75.8962 20.9141C76.4744 20.3047 77.2869 20 78.3337 20ZM96.3 20C97.3625 20 98.1828 20.3047 98.7609 20.9141C99.3391 21.5078 99.6281 22.2578 99.6281 23.1641C99.6281 24.0547 99.3391 24.7969 98.7609 25.3906C98.1828 25.9688 97.3625 26.2578 96.3 26.2578C95.2844 26.2578 94.4797 25.9688 93.8859 25.3906C93.2922 24.8125 92.9953 24.0703 92.9953 23.1641C92.9953 22.2578 93.2844 21.5078 93.8625 20.9141C94.4406 20.3047 95.2531 20 96.3 20ZM114.266 20C115.329 20 116.149 20.3047 116.727 20.9141C117.305 21.5078 117.594 22.2578 117.594 23.1641C117.594 24.0547 117.305 24.7969 116.727 25.3906C116.149 25.9688 115.329 26.2578 114.266 26.2578C113.251 26.2578 112.446 25.9688 111.852 25.3906C111.258 24.8125 110.962 24.0703 110.962 23.1641C110.962 22.2578 111.251 21.5078 111.829 20.9141C112.407 20.3047 113.219 20 114.266 20ZM132.232 20C133.295 20 134.115 20.3047 134.693 20.9141C135.272 21.5078 135.561 22.2578 135.561 23.1641C135.561 24.0547 135.272 24.7969 134.693 25.3906C134.115 25.9688 133.295 26.2578 132.232 26.2578C131.217 26.2578 130.412 25.9688 129.818 25.3906C129.225 24.8125 128.928 24.0703 128.928 23.1641C128.928 22.2578 129.217 21.5078 129.795 20.9141C130.373 20.3047 131.186 20 132.232 20ZM150.199 20C151.261 20 152.082 20.3047 152.66 20.9141C153.238 21.5078 153.527 22.2578 153.527 23.1641C153.527 24.0547 153.238 24.7969 152.66 25.3906C152.082 25.9688 151.261 26.2578 150.199 26.2578C149.183 26.2578 148.378 25.9688 147.785 25.3906C147.191 24.8125 146.894 24.0703 146.894 23.1641C146.894 22.2578 147.183 21.5078 147.761 20.9141C148.339 20.3047 149.152 20 150.199 20ZM168.165 20C169.227 20 170.048 20.3047 170.626 20.9141C171.204 21.5078 171.493 22.2578 171.493 23.1641C171.493 24.0547 171.204 24.7969 170.626 25.3906C170.048 25.9688 169.227 26.2578 168.165 26.2578C167.149 26.2578 166.345 25.9688 165.751 25.3906C165.157 24.8125 164.86 24.0703 164.86 23.1641C164.86 22.2578 165.149 21.5078 165.727 20.9141C166.306 20.3047 167.118 20 168.165 20ZM186.131 20C187.194 20 188.014 20.3047 188.592 20.9141C189.17 21.5078 189.459 22.2578 189.459 23.1641C189.459 24.0547 189.17 24.7969 188.592 25.3906C188.014 25.9688 187.194 26.2578 186.131 26.2578C185.116 26.2578 184.311 25.9688 183.717 25.3906C183.123 24.8125 182.827 24.0703 182.827 23.1641C182.827 22.2578 183.116 21.5078 183.694 20.9141C184.272 20.3047 185.084 20 186.131 20ZM6.46875 40C7.53125 40 8.35156 40.3047 8.92969 40.9141C9.50781 41.5078 9.79688 42.2578 9.79688 43.1641C9.79688 44.0547 9.50781 44.7969 8.92969 45.3906C8.35156 45.9688 7.53125 46.2578 6.46875 46.2578C5.45312 46.2578 4.64844 45.9688 4.05469 45.3906C3.46094 44.8125 3.16406 44.0703 3.16406 43.1641C3.16406 42.2578 3.45312 41.5078 4.03125 40.9141C4.60938 40.3047 5.42188 40 6.46875 40ZM24.435 40C25.4975 40 26.3178 40.3047 26.8959 40.9141C27.4741 41.5078 27.7631 42.2578 27.7631 43.1641C27.7631 44.0547 27.4741 44.7969 26.8959 45.3906C26.3178 45.9688 25.4975 46.2578 24.435 46.2578C23.4194 46.2578 22.6147 45.9688 22.0209 45.3906C21.4272 44.8125 21.1303 44.0703 21.1303 43.1641C21.1303 42.2578 21.4194 41.5078 21.9975 40.9141C22.5756 40.3047 23.3881 40 24.435 40ZM42.4012 40C43.4637 40 44.2841 40.3047 44.8622 40.9141C45.4403 41.5078 45.7294 42.2578 45.7294 43.1641C45.7294 44.0547 45.4403 44.7969 44.8622 45.3906C44.2841 45.9688 43.4637 46.2578 42.4012 46.2578C41.3856 46.2578 40.5809 45.9688 39.9872 45.3906C39.3934 44.8125 39.0966 44.0703 39.0966 43.1641C39.0966 42.2578 39.3856 41.5078 39.9637 40.9141C40.5419 40.3047 41.3544 40 42.4012 40ZM60.3675 40C61.43 40 62.2503 40.3047 62.8284 40.9141C63.4066 41.5078 63.6956 42.2578 63.6956 43.1641C63.6956 44.0547 63.4066 44.7969 62.8284 45.3906C62.2503 45.9688 61.43 46.2578 60.3675 46.2578C59.3519 46.2578 58.5472 45.9688 57.9534 45.3906C57.3597 44.8125 57.0628 44.0703 57.0628 43.1641C57.0628 42.2578 57.3519 41.5078 57.93 40.9141C58.5081 40.3047 59.3206 40 60.3675 40ZM78.3337 40C79.3962 40 80.2166 40.3047 80.7947 40.9141C81.3728 41.5078 81.6619 42.2578 81.6619 43.1641C81.6619 44.0547 81.3728 44.7969 80.7947 45.3906C80.2166 45.9688 79.3962 46.2578 78.3337 46.2578C77.3181 46.2578 76.5134 45.9688 75.9197 45.3906C75.3259 44.8125 75.0291 44.0703 75.0291 43.1641C75.0291 42.2578 75.3181 41.5078 75.8962 40.9141C76.4744 40.3047 77.2869 40 78.3337 40ZM96.3 40C97.3625 40 98.1828 40.3047 98.7609 40.9141C99.3391 41.5078 99.6281 42.2578 99.6281 43.1641C99.6281 44.0547 99.3391 44.7969 98.7609 45.3906C98.1828 45.9688 97.3625 46.2578 96.3 46.2578C95.2844 46.2578 94.4797 45.9688 93.8859 45.3906C93.2922 44.8125 92.9953 44.0703 92.9953 43.1641C92.9953 42.2578 93.2844 41.5078 93.8625 40.9141C94.4406 40.3047 95.2531 40 96.3 40ZM114.266 40C115.329 40 116.149 40.3047 116.727 40.9141C117.305 41.5078 117.594 42.2578 117.594 43.1641C117.594 44.0547 117.305 44.7969 116.727 45.3906C116.149 45.9688 115.329 46.2578 114.266 46.2578C113.251 46.2578 112.446 45.9688 111.852 45.3906C111.258 44.8125 110.962 44.0703 110.962 43.1641C110.962 42.2578 111.251 41.5078 111.829 40.9141C112.407 40.3047 113.219 40 114.266 40ZM132.232 40C133.295 40 134.115 40.3047 134.693 40.9141C135.272 41.5078 135.561 42.2578 135.561 43.1641C135.561 44.0547 135.272 44.7969 134.693 45.3906C134.115 45.9688 133.295 46.2578 132.232 46.2578C131.217 46.2578 130.412 45.9688 129.818 45.3906C129.225 44.8125 128.928 44.0703 128.928 43.1641C128.928 42.2578 129.217 41.5078 129.795 40.9141C130.373 40.3047 131.186 40 132.232 40ZM150.199 40C151.261 40 152.082 40.3047 152.66 40.9141C153.238 41.5078 153.527 42.2578 153.527 43.1641C153.527 44.0547 153.238 44.7969 152.66 45.3906C152.082 45.9688 151.261 46.2578 150.199 46.2578C149.183 46.2578 148.378 45.9688 147.785 45.3906C147.191 44.8125 146.894 44.0703 146.894 43.1641C146.894 42.2578 147.183 41.5078 147.761 40.9141C148.339 40.3047 149.152 40 150.199 40ZM168.165 40C169.227 40 170.048 40.3047 170.626 40.9141C171.204 41.5078 171.493 42.2578 171.493 43.1641C171.493 44.0547 171.204 44.7969 170.626 45.3906C170.048 45.9688 169.227 46.2578 168.165 46.2578C167.149 46.2578 166.345 45.9688 165.751 45.3906C165.157 44.8125 164.86 44.0703 164.86 43.1641C164.86 42.2578 165.149 41.5078 165.727 40.9141C166.306 40.3047 167.118 40 168.165 40ZM186.131 40C187.194 40 188.014 40.3047 188.592 40.9141C189.17 41.5078 189.459 42.2578 189.459 43.1641C189.459 44.0547 189.17 44.7969 188.592 45.3906C188.014 45.9688 187.194 46.2578 186.131 46.2578C185.116 46.2578 184.311 45.9688 183.717 45.3906C183.123 44.8125 182.827 44.0703 182.827 43.1641C182.827 42.2578 183.116 41.5078 183.694 40.9141C184.272 40.3047 185.084 40 186.131 40ZM6.46875 60C7.53125 60 8.35156 60.3047 8.92969 60.9141C9.50781 61.5078 9.79688 62.2578 9.79688 63.1641C9.79688 64.0547 9.50781 64.7969 8.92969 65.3906C8.35156 65.9688 7.53125 66.2578 6.46875 66.2578C5.45312 66.2578 4.64844 65.9688 4.05469 65.3906C3.46094 64.8125 3.16406 64.0703 3.16406 63.1641C3.16406 62.2578 3.45312 61.5078 4.03125 60.9141C4.60938 60.3047 5.42188 60 6.46875 60ZM24.435 60C25.4975 60 26.3178 60.3047 26.8959 60.9141C27.4741 61.5078 27.7631 62.2578 27.7631 63.1641C27.7631 64.0547 27.4741 64.7969 26.8959 65.3906C26.3178 65.9688 25.4975 66.2578 24.435 66.2578C23.4194 66.2578 22.6147 65.9688 22.0209 65.3906C21.4272 64.8125 21.1303 64.0703 21.1303 63.1641C21.1303 62.2578 21.4194 61.5078 21.9975 60.9141C22.5756 60.3047 23.3881 60 24.435 60ZM42.4012 60C43.4637 60 44.2841 60.3047 44.8622 60.9141C45.4403 61.5078 45.7294 62.2578 45.7294 63.1641C45.7294 64.0547 45.4403 64.7969 44.8622 65.3906C44.2841 65.9688 43.4637 66.2578 42.4012 66.2578C41.3856 66.2578 40.5809 65.9688 39.9872 65.3906C39.3934 64.8125 39.0966 64.0703 39.0966 63.1641C39.0966 62.2578 39.3856 61.5078 39.9637 60.9141C40.5419 60.3047 41.3544 60 42.4012 60ZM60.3675 60C61.43 60 62.2503 60.3047 62.8284 60.9141C63.4066 61.5078 63.6956 62.2578 63.6956 63.1641C63.6956 64.0547 63.4066 64.7969 62.8284 65.3906C62.2503 65.9688 61.43 66.2578 60.3675 66.2578C59.3519 66.2578 58.5472 65.9688 57.9534 65.3906C57.3597 64.8125 57.0628 64.0703 57.0628 63.1641C57.0628 62.2578 57.3519 61.5078 57.93 60.9141C58.5081 60.3047 59.3206 60 60.3675 60ZM78.3337 60C79.3962 60 80.2166 60.3047 80.7947 60.9141C81.3728 61.5078 81.6619 62.2578 81.6619 63.1641C81.6619 64.0547 81.3728 64.7969 80.7947 65.3906C80.2166 65.9688 79.3962 66.2578 78.3337 66.2578C77.3181 66.2578 76.5134 65.9688 75.9197 65.3906C75.3259 64.8125 75.0291 64.0703 75.0291 63.1641C75.0291 62.2578 75.3181 61.5078 75.8962 60.9141C76.4744 60.3047 77.2869 60 78.3337 60ZM96.3 60C97.3625 60 98.1828 60.3047 98.7609 60.9141C99.3391 61.5078 99.6281 62.2578 99.6281 63.1641C99.6281 64.0547 99.3391 64.7969 98.7609 65.3906C98.1828 65.9688 97.3625 66.2578 96.3 66.2578C95.2844 66.2578 94.4797 65.9688 93.8859 65.3906C93.2922 64.8125 92.9953 64.0703 92.9953 63.1641C92.9953 62.2578 93.2844 61.5078 93.8625 60.9141C94.4406 60.3047 95.2531 60 96.3 60ZM114.266 60C115.329 60 116.149 60.3047 116.727 60.9141C117.305 61.5078 117.594 62.2578 117.594 63.1641C117.594 64.0547 117.305 64.7969 116.727 65.3906C116.149 65.9688 115.329 66.2578 114.266 66.2578C113.251 66.2578 112.446 65.9688 111.852 65.3906C111.258 64.8125 110.962 64.0703 110.962 63.1641C110.962 62.2578 111.251 61.5078 111.829 60.9141C112.407 60.3047 113.219 60 114.266 60ZM132.232 60C133.295 60 134.115 60.3047 134.693 60.9141C135.272 61.5078 135.561 62.2578 135.561 63.1641C135.561 64.0547 135.272 64.7969 134.693 65.3906C134.115 65.9688 133.295 66.2578 132.232 66.2578C131.217 66.2578 130.412 65.9688 129.818 65.3906C129.225 64.8125 128.928 64.0703 128.928 63.1641C128.928 62.2578 129.217 61.5078 129.795 60.9141C130.373 60.3047 131.186 60 132.232 60ZM150.199 60C151.261 60 152.082 60.3047 152.66 60.9141C153.238 61.5078 153.527 62.2578 153.527 63.1641C153.527 64.0547 153.238 64.7969 152.66 65.3906C152.082 65.9688 151.261 66.2578 150.199 66.2578C149.183 66.2578 148.378 65.9688 147.785 65.3906C147.191 64.8125 146.894 64.0703 146.894 63.1641C146.894 62.2578 147.183 61.5078 147.761 60.9141C148.339 60.3047 149.152 60 150.199 60ZM168.165 60C169.227 60 170.048 60.3047 170.626 60.9141C171.204 61.5078 171.493 62.2578 171.493 63.1641C171.493 64.0547 171.204 64.7969 170.626 65.3906C170.048 65.9688 169.227 66.2578 168.165 66.2578C167.149 66.2578 166.345 65.9688 165.751 65.3906C165.157 64.8125 164.86 64.0703 164.86 63.1641C164.86 62.2578 165.149 61.5078 165.727 60.9141C166.306 60.3047 167.118 60 168.165 60ZM186.131 60C187.194 60 188.014 60.3047 188.592 60.9141C189.17 61.5078 189.459 62.2578 189.459 63.1641C189.459 64.0547 189.17 64.7969 188.592 65.3906C188.014 65.9688 187.194 66.2578 186.131 66.2578C185.116 66.2578 184.311 65.9688 183.717 65.3906C183.123 64.8125 182.827 64.0703 182.827 63.1641C182.827 62.2578 183.116 61.5078 183.694 60.9141C184.272 60.3047 185.084 60 186.131 60ZM6.46875 80C7.53125 80 8.35156 80.3047 8.92969 80.9141C9.50781 81.5078 9.79688 82.2578 9.79688 83.1641C9.79688 84.0547 9.50781 84.7969 8.92969 85.3906C8.35156 85.9688 7.53125 86.2578 6.46875 86.2578C5.45312 86.2578 4.64844 85.9688 4.05469 85.3906C3.46094 84.8125 3.16406 84.0703 3.16406 83.1641C3.16406 82.2578 3.45312 81.5078 4.03125 80.9141C4.60938 80.3047 5.42188 80 6.46875 80ZM24.435 80C25.4975 80 26.3178 80.3047 26.8959 80.9141C27.4741 81.5078 27.7631 82.2578 27.7631 83.1641C27.7631 84.0547 27.4741 84.7969 26.8959 85.3906C26.3178 85.9688 25.4975 86.2578 24.435 86.2578C23.4194 86.2578 22.6147 85.9688 22.0209 85.3906C21.4272 84.8125 21.1303 84.0703 21.1303 83.1641C21.1303 82.2578 21.4194 81.5078 21.9975 80.9141C22.5756 80.3047 23.3881 80 24.435 80ZM42.4012 80C43.4637 80 44.2841 80.3047 44.8622 80.9141C45.4403 81.5078 45.7294 82.2578 45.7294 83.1641C45.7294 84.0547 45.4403 84.7969 44.8622 85.3906C44.2841 85.9688 43.4637 86.2578 42.4012 86.2578C41.3856 86.2578 40.5809 85.9688 39.9872 85.3906C39.3934 84.8125 39.0966 84.0703 39.0966 83.1641C39.0966 82.2578 39.3856 81.5078 39.9637 80.9141C40.5419 80.3047 41.3544 80 42.4012 80ZM60.3675 80C61.43 80 62.2503 80.3047 62.8284 80.9141C63.4066 81.5078 63.6956 82.2578 63.6956 83.1641C63.6956 84.0547 63.4066 84.7969 62.8284 85.3906C62.2503 85.9688 61.43 86.2578 60.3675 86.2578C59.3519 86.2578 58.5472 85.9688 57.9534 85.3906C57.3597 84.8125 57.0628 84.0703 57.0628 83.1641C57.0628 82.2578 57.3519 81.5078 57.93 80.9141C58.5081 80.3047 59.3206 80 60.3675 80ZM78.3337 80C79.3962 80 80.2166 80.3047 80.7947 80.9141C81.3728 81.5078 81.6619 82.2578 81.6619 83.1641C81.6619 84.0547 81.3728 84.7969 80.7947 85.3906C80.2166 85.9688 79.3962 86.2578 78.3337 86.2578C77.3181 86.2578 76.5134 85.9688 75.9197 85.3906C75.3259 84.8125 75.0291 84.0703 75.0291 83.1641C75.0291 82.2578 75.3181 81.5078 75.8962 80.9141C76.4744 80.3047 77.2869 80 78.3337 80ZM96.3 80C97.3625 80 98.1828 80.3047 98.7609 80.9141C99.3391 81.5078 99.6281 82.2578 99.6281 83.1641C99.6281 84.0547 99.3391 84.7969 98.7609 85.3906C98.1828 85.9688 97.3625 86.2578 96.3 86.2578C95.2844 86.2578 94.4797 85.9688 93.8859 85.3906C93.2922 84.8125 92.9953 84.0703 92.9953 83.1641C92.9953 82.2578 93.2844 81.5078 93.8625 80.9141C94.4406 80.3047 95.2531 80 96.3 80ZM114.266 80C115.329 80 116.149 80.3047 116.727 80.9141C117.305 81.5078 117.594 82.2578 117.594 83.1641C117.594 84.0547 117.305 84.7969 116.727 85.3906C116.149 85.9688 115.329 86.2578 114.266 86.2578C113.251 86.2578 112.446 85.9688 111.852 85.3906C111.258 84.8125 110.962 84.0703 110.962 83.1641C110.962 82.2578 111.251 81.5078 111.829 80.9141C112.407 80.3047 113.219 80 114.266 80ZM132.232 80C133.295 80 134.115 80.3047 134.693 80.9141C135.272 81.5078 135.561 82.2578 135.561 83.1641C135.561 84.0547 135.272 84.7969 134.693 85.3906C134.115 85.9688 133.295 86.2578 132.232 86.2578C131.217 86.2578 130.412 85.9688 129.818 85.3906C129.225 84.8125 128.928 84.0703 128.928 83.1641C128.928 82.2578 129.217 81.5078 129.795 80.9141C130.373 80.3047 131.186 80 132.232 80ZM150.199 80C151.261 80 152.082 80.3047 152.66 80.9141C153.238 81.5078 153.527 82.2578 153.527 83.1641C153.527 84.0547 153.238 84.7969 152.66 85.3906C152.082 85.9688 151.261 86.2578 150.199 86.2578C149.183 86.2578 148.378 85.9688 147.785 85.3906C147.191 84.8125 146.894 84.0703 146.894 83.1641C146.894 82.2578 147.183 81.5078 147.761 80.9141C148.339 80.3047 149.152 80 150.199 80ZM168.165 80C169.227 80 170.048 80.3047 170.626 80.9141C171.204 81.5078 171.493 82.2578 171.493 83.1641C171.493 84.0547 171.204 84.7969 170.626 85.3906C170.048 85.9688 169.227 86.2578 168.165 86.2578C167.149 86.2578 166.345 85.9688 165.751 85.3906C165.157 84.8125 164.86 84.0703 164.86 83.1641C164.86 82.2578 165.149 81.5078 165.727 80.9141C166.306 80.3047 167.118 80 168.165 80ZM186.131 80C187.194 80 188.014 80.3047 188.592 80.9141C189.17 81.5078 189.459 82.2578 189.459 83.1641C189.459 84.0547 189.17 84.7969 188.592 85.3906C188.014 85.9688 187.194 86.2578 186.131 86.2578C185.116 86.2578 184.311 85.9688 183.717 85.3906C183.123 84.8125 182.827 84.0703 182.827 83.1641C182.827 82.2578 183.116 81.5078 183.694 80.9141C184.272 80.3047 185.084 80 186.131 80Z" fill="url(#paint0_linear)"/>
<line opacity="0.5" x1="35" y1="52" x2="135" y2="52" stroke="white" stroke-width="4"/>
<defs>
<linearGradient id="paint0_linear" x1="-4.32052e-09" y1="60.9231" x2="196" y2="60.9231" gradientUnits="userSpaceOnUse">
<stop stop-color="white"/>
<stop offset="1" stop-color="white" stop-opacity="0"/>
</linearGradient>
</defs>
</svg>
