<svg width="187" height="39" viewBox="0 0 187 39" fill="none" xmlns="http://www.w3.org/2000/svg">
<path opacity="0.8" d="M3.46875 0C4.53125 0 5.35156 0.304688 5.92969 0.914062C6.50781 1.50781 6.79688 2.25781 6.79688 3.16406C6.79688 4.05469 6.50781 4.79688 5.92969 5.39062C5.35156 5.96875 4.53125 6.25781 3.46875 6.25781C2.45312 6.25781 1.64844 5.96875 1.05469 5.39062C0.460938 4.8125 0.164062 4.07031 0.164062 3.16406C0.164062 2.25781 0.453125 1.50781 1.03125 0.914062C1.60938 0.304688 2.42188 0 3.46875 0ZM21.435 0C22.4975 0 23.3178 0.304688 23.8959 0.914062C24.4741 1.50781 24.7631 2.25781 24.7631 3.16406C24.7631 4.05469 24.4741 4.79688 23.8959 5.39062C23.3178 5.96875 22.4975 6.25781 21.435 6.25781C20.4194 6.25781 19.6147 5.96875 19.0209 5.39062C18.4272 4.8125 18.1303 4.07031 18.1303 3.16406C18.1303 2.25781 18.4194 1.50781 18.9975 0.914062C19.5756 0.304688 20.3881 0 21.435 0ZM39.4012 0C40.4637 0 41.2841 0.304688 41.8622 0.914062C42.4403 1.50781 42.7294 2.25781 42.7294 3.16406C42.7294 4.05469 42.4403 4.79688 41.8622 5.39062C41.2841 5.96875 40.4637 6.25781 39.4012 6.25781C38.3856 6.25781 37.5809 5.96875 36.9872 5.39062C36.3934 4.8125 36.0966 4.07031 36.0966 3.16406C36.0966 2.25781 36.3856 1.50781 36.9637 0.914062C37.5419 0.304688 38.3544 0 39.4012 0ZM57.3675 0C58.43 0 59.2503 0.304688 59.8284 0.914062C60.4066 1.50781 60.6956 2.25781 60.6956 3.16406C60.6956 4.05469 60.4066 4.79688 59.8284 5.39062C59.2503 5.96875 58.43 6.25781 57.3675 6.25781C56.3519 6.25781 55.5472 5.96875 54.9534 5.39062C54.3597 4.8125 54.0628 4.07031 54.0628 3.16406C54.0628 2.25781 54.3519 1.50781 54.93 0.914062C55.5081 0.304688 56.3206 0 57.3675 0ZM75.3337 0C76.3962 0 77.2166 0.304688 77.7947 0.914062C78.3728 1.50781 78.6619 2.25781 78.6619 3.16406C78.6619 4.05469 78.3728 4.79688 77.7947 5.39062C77.2166 5.96875 76.3962 6.25781 75.3337 6.25781C74.3181 6.25781 73.5134 5.96875 72.9197 5.39062C72.3259 4.8125 72.0291 4.07031 72.0291 3.16406C72.0291 2.25781 72.3181 1.50781 72.8962 0.914062C73.4744 0.304688 74.2869 0 75.3337 0ZM93.3 0C94.3625 0 95.1828 0.304688 95.7609 0.914062C96.3391 1.50781 96.6281 2.25781 96.6281 3.16406C96.6281 4.05469 96.3391 4.79688 95.7609 5.39062C95.1828 5.96875 94.3625 6.25781 93.3 6.25781C92.2844 6.25781 91.4797 5.96875 90.8859 5.39062C90.2922 4.8125 89.9953 4.07031 89.9953 3.16406C89.9953 2.25781 90.2844 1.50781 90.8625 0.914062C91.4406 0.304688 92.2531 0 93.3 0ZM111.266 0C112.329 0 113.149 0.304688 113.727 0.914062C114.305 1.50781 114.594 2.25781 114.594 3.16406C114.594 4.05469 114.305 4.79688 113.727 5.39062C113.149 5.96875 112.329 6.25781 111.266 6.25781C110.251 6.25781 109.446 5.96875 108.852 5.39062C108.258 4.8125 107.962 4.07031 107.962 3.16406C107.962 2.25781 108.251 1.50781 108.829 0.914062C109.407 0.304688 110.219 0 111.266 0ZM129.232 0C130.295 0 131.115 0.304688 131.693 0.914062C132.272 1.50781 132.561 2.25781 132.561 3.16406C132.561 4.05469 132.272 4.79688 131.693 5.39062C131.115 5.96875 130.295 6.25781 129.232 6.25781C128.217 6.25781 127.412 5.96875 126.818 5.39062C126.225 4.8125 125.928 4.07031 125.928 3.16406C125.928 2.25781 126.217 1.50781 126.795 0.914062C127.373 0.304688 128.186 0 129.232 0ZM147.199 0C148.261 0 149.082 0.304688 149.66 0.914062C150.238 1.50781 150.527 2.25781 150.527 3.16406C150.527 4.05469 150.238 4.79688 149.66 5.39062C149.082 5.96875 148.261 6.25781 147.199 6.25781C146.183 6.25781 145.378 5.96875 144.785 5.39062C144.191 4.8125 143.894 4.07031 143.894 3.16406C143.894 2.25781 144.183 1.50781 144.761 0.914062C145.339 0.304688 146.152 0 147.199 0ZM165.165 0C166.227 0 167.048 0.304688 167.626 0.914062C168.204 1.50781 168.493 2.25781 168.493 3.16406C168.493 4.05469 168.204 4.79688 167.626 5.39062C167.048 5.96875 166.227 6.25781 165.165 6.25781C164.149 6.25781 163.345 5.96875 162.751 5.39062C162.157 4.8125 161.86 4.07031 161.86 3.16406C161.86 2.25781 162.149 1.50781 162.727 0.914062C163.306 0.304688 164.118 0 165.165 0ZM183.131 0C184.194 0 185.014 0.304688 185.592 0.914062C186.17 1.50781 186.459 2.25781 186.459 3.16406C186.459 4.05469 186.17 4.79688 185.592 5.39062C185.014 5.96875 184.194 6.25781 183.131 6.25781C182.116 6.25781 181.311 5.96875 180.717 5.39062C180.123 4.8125 179.827 4.07031 179.827 3.16406C179.827 2.25781 180.116 1.50781 180.694 0.914062C181.272 0.304688 182.084 0 183.131 0ZM3.46875 16C4.53125 16 5.35156 16.3047 5.92969 16.9141C6.50781 17.5078 6.79688 18.2578 6.79688 19.1641C6.79688 20.0547 6.50781 20.7969 5.92969 21.3906C5.35156 21.9688 4.53125 22.2578 3.46875 22.2578C2.45312 22.2578 1.64844 21.9688 1.05469 21.3906C0.460938 20.8125 0.164062 20.0703 0.164062 19.1641C0.164062 18.2578 0.453125 17.5078 1.03125 16.9141C1.60938 16.3047 2.42188 16 3.46875 16ZM21.435 16C22.4975 16 23.3178 16.3047 23.8959 16.9141C24.4741 17.5078 24.7631 18.2578 24.7631 19.1641C24.7631 20.0547 24.4741 20.7969 23.8959 21.3906C23.3178 21.9688 22.4975 22.2578 21.435 22.2578C20.4194 22.2578 19.6147 21.9688 19.0209 21.3906C18.4272 20.8125 18.1303 20.0703 18.1303 19.1641C18.1303 18.2578 18.4194 17.5078 18.9975 16.9141C19.5756 16.3047 20.3881 16 21.435 16ZM39.4012 16C40.4637 16 41.2841 16.3047 41.8622 16.9141C42.4403 17.5078 42.7294 18.2578 42.7294 19.1641C42.7294 20.0547 42.4403 20.7969 41.8622 21.3906C41.2841 21.9688 40.4637 22.2578 39.4012 22.2578C38.3856 22.2578 37.5809 21.9688 36.9872 21.3906C36.3934 20.8125 36.0966 20.0703 36.0966 19.1641C36.0966 18.2578 36.3856 17.5078 36.9637 16.9141C37.5419 16.3047 38.3544 16 39.4012 16ZM57.3675 16C58.43 16 59.2503 16.3047 59.8284 16.9141C60.4066 17.5078 60.6956 18.2578 60.6956 19.1641C60.6956 20.0547 60.4066 20.7969 59.8284 21.3906C59.2503 21.9688 58.43 22.2578 57.3675 22.2578C56.3519 22.2578 55.5472 21.9688 54.9534 21.3906C54.3597 20.8125 54.0628 20.0703 54.0628 19.1641C54.0628 18.2578 54.3519 17.5078 54.93 16.9141C55.5081 16.3047 56.3206 16 57.3675 16ZM75.3337 16C76.3962 16 77.2166 16.3047 77.7947 16.9141C78.3728 17.5078 78.6619 18.2578 78.6619 19.1641C78.6619 20.0547 78.3728 20.7969 77.7947 21.3906C77.2166 21.9688 76.3962 22.2578 75.3337 22.2578C74.3181 22.2578 73.5134 21.9688 72.9197 21.3906C72.3259 20.8125 72.0291 20.0703 72.0291 19.1641C72.0291 18.2578 72.3181 17.5078 72.8962 16.9141C73.4744 16.3047 74.2869 16 75.3337 16ZM93.3 16C94.3625 16 95.1828 16.3047 95.7609 16.9141C96.3391 17.5078 96.6281 18.2578 96.6281 19.1641C96.6281 20.0547 96.3391 20.7969 95.7609 21.3906C95.1828 21.9688 94.3625 22.2578 93.3 22.2578C92.2844 22.2578 91.4797 21.9688 90.8859 21.3906C90.2922 20.8125 89.9953 20.0703 89.9953 19.1641C89.9953 18.2578 90.2844 17.5078 90.8625 16.9141C91.4406 16.3047 92.2531 16 93.3 16ZM111.266 16C112.329 16 113.149 16.3047 113.727 16.9141C114.305 17.5078 114.594 18.2578 114.594 19.1641C114.594 20.0547 114.305 20.7969 113.727 21.3906C113.149 21.9688 112.329 22.2578 111.266 22.2578C110.251 22.2578 109.446 21.9688 108.852 21.3906C108.258 20.8125 107.962 20.0703 107.962 19.1641C107.962 18.2578 108.251 17.5078 108.829 16.9141C109.407 16.3047 110.219 16 111.266 16ZM129.232 16C130.295 16 131.115 16.3047 131.693 16.9141C132.272 17.5078 132.561 18.2578 132.561 19.1641C132.561 20.0547 132.272 20.7969 131.693 21.3906C131.115 21.9688 130.295 22.2578 129.232 22.2578C128.217 22.2578 127.412 21.9688 126.818 21.3906C126.225 20.8125 125.928 20.0703 125.928 19.1641C125.928 18.2578 126.217 17.5078 126.795 16.9141C127.373 16.3047 128.186 16 129.232 16ZM147.199 16C148.261 16 149.082 16.3047 149.66 16.9141C150.238 17.5078 150.527 18.2578 150.527 19.1641C150.527 20.0547 150.238 20.7969 149.66 21.3906C149.082 21.9688 148.261 22.2578 147.199 22.2578C146.183 22.2578 145.378 21.9688 144.785 21.3906C144.191 20.8125 143.894 20.0703 143.894 19.1641C143.894 18.2578 144.183 17.5078 144.761 16.9141C145.339 16.3047 146.152 16 147.199 16ZM165.165 16C166.227 16 167.048 16.3047 167.626 16.9141C168.204 17.5078 168.493 18.2578 168.493 19.1641C168.493 20.0547 168.204 20.7969 167.626 21.3906C167.048 21.9688 166.227 22.2578 165.165 22.2578C164.149 22.2578 163.345 21.9688 162.751 21.3906C162.157 20.8125 161.86 20.0703 161.86 19.1641C161.86 18.2578 162.149 17.5078 162.727 16.9141C163.306 16.3047 164.118 16 165.165 16ZM183.131 16C184.194 16 185.014 16.3047 185.592 16.9141C186.17 17.5078 186.459 18.2578 186.459 19.1641C186.459 20.0547 186.17 20.7969 185.592 21.3906C185.014 21.9688 184.194 22.2578 183.131 22.2578C182.116 22.2578 181.311 21.9688 180.717 21.3906C180.123 20.8125 179.827 20.0703 179.827 19.1641C179.827 18.2578 180.116 17.5078 180.694 16.9141C181.272 16.3047 182.084 16 183.131 16ZM3.46875 32C4.53125 32 5.35156 32.3047 5.92969 32.9141C6.50781 33.5078 6.79688 34.2578 6.79688 35.1641C6.79688 36.0547 6.50781 36.7969 5.92969 37.3906C5.35156 37.9688 4.53125 38.2578 3.46875 38.2578C2.45312 38.2578 1.64844 37.9688 1.05469 37.3906C0.460938 36.8125 0.164062 36.0703 0.164062 35.1641C0.164062 34.2578 0.453125 33.5078 1.03125 32.9141C1.60938 32.3047 2.42188 32 3.46875 32ZM21.435 32C22.4975 32 23.3178 32.3047 23.8959 32.9141C24.4741 33.5078 24.7631 34.2578 24.7631 35.1641C24.7631 36.0547 24.4741 36.7969 23.8959 37.3906C23.3178 37.9688 22.4975 38.2578 21.435 38.2578C20.4194 38.2578 19.6147 37.9688 19.0209 37.3906C18.4272 36.8125 18.1303 36.0703 18.1303 35.1641C18.1303 34.2578 18.4194 33.5078 18.9975 32.9141C19.5756 32.3047 20.3881 32 21.435 32ZM39.4012 32C40.4637 32 41.2841 32.3047 41.8622 32.9141C42.4403 33.5078 42.7294 34.2578 42.7294 35.1641C42.7294 36.0547 42.4403 36.7969 41.8622 37.3906C41.2841 37.9688 40.4637 38.2578 39.4012 38.2578C38.3856 38.2578 37.5809 37.9688 36.9872 37.3906C36.3934 36.8125 36.0966 36.0703 36.0966 35.1641C36.0966 34.2578 36.3856 33.5078 36.9637 32.9141C37.5419 32.3047 38.3544 32 39.4012 32ZM57.3675 32C58.43 32 59.2503 32.3047 59.8284 32.9141C60.4066 33.5078 60.6956 34.2578 60.6956 35.1641C60.6956 36.0547 60.4066 36.7969 59.8284 37.3906C59.2503 37.9688 58.43 38.2578 57.3675 38.2578C56.3519 38.2578 55.5472 37.9688 54.9534 37.3906C54.3597 36.8125 54.0628 36.0703 54.0628 35.1641C54.0628 34.2578 54.3519 33.5078 54.93 32.9141C55.5081 32.3047 56.3206 32 57.3675 32ZM75.3337 32C76.3962 32 77.2166 32.3047 77.7947 32.9141C78.3728 33.5078 78.6619 34.2578 78.6619 35.1641C78.6619 36.0547 78.3728 36.7969 77.7947 37.3906C77.2166 37.9688 76.3962 38.2578 75.3337 38.2578C74.3181 38.2578 73.5134 37.9688 72.9197 37.3906C72.3259 36.8125 72.0291 36.0703 72.0291 35.1641C72.0291 34.2578 72.3181 33.5078 72.8962 32.9141C73.4744 32.3047 74.2869 32 75.3337 32ZM93.3 32C94.3625 32 95.1828 32.3047 95.7609 32.9141C96.3391 33.5078 96.6281 34.2578 96.6281 35.1641C96.6281 36.0547 96.3391 36.7969 95.7609 37.3906C95.1828 37.9688 94.3625 38.2578 93.3 38.2578C92.2844 38.2578 91.4797 37.9688 90.8859 37.3906C90.2922 36.8125 89.9953 36.0703 89.9953 35.1641C89.9953 34.2578 90.2844 33.5078 90.8625 32.9141C91.4406 32.3047 92.2531 32 93.3 32ZM111.266 32C112.329 32 113.149 32.3047 113.727 32.9141C114.305 33.5078 114.594 34.2578 114.594 35.1641C114.594 36.0547 114.305 36.7969 113.727 37.3906C113.149 37.9688 112.329 38.2578 111.266 38.2578C110.251 38.2578 109.446 37.9688 108.852 37.3906C108.258 36.8125 107.962 36.0703 107.962 35.1641C107.962 34.2578 108.251 33.5078 108.829 32.9141C109.407 32.3047 110.219 32 111.266 32ZM129.232 32C130.295 32 131.115 32.3047 131.693 32.9141C132.272 33.5078 132.561 34.2578 132.561 35.1641C132.561 36.0547 132.272 36.7969 131.693 37.3906C131.115 37.9688 130.295 38.2578 129.232 38.2578C128.217 38.2578 127.412 37.9688 126.818 37.3906C126.225 36.8125 125.928 36.0703 125.928 35.1641C125.928 34.2578 126.217 33.5078 126.795 32.9141C127.373 32.3047 128.186 32 129.232 32ZM147.199 32C148.261 32 149.082 32.3047 149.66 32.9141C150.238 33.5078 150.527 34.2578 150.527 35.1641C150.527 36.0547 150.238 36.7969 149.66 37.3906C149.082 37.9688 148.261 38.2578 147.199 38.2578C146.183 38.2578 145.378 37.9688 144.785 37.3906C144.191 36.8125 143.894 36.0703 143.894 35.1641C143.894 34.2578 144.183 33.5078 144.761 32.9141C145.339 32.3047 146.152 32 147.199 32ZM165.165 32C166.227 32 167.048 32.3047 167.626 32.9141C168.204 33.5078 168.493 34.2578 168.493 35.1641C168.493 36.0547 168.204 36.7969 167.626 37.3906C167.048 37.9688 166.227 38.2578 165.165 38.2578C164.149 38.2578 163.345 37.9688 162.751 37.3906C162.157 36.8125 161.86 36.0703 161.86 35.1641C161.86 34.2578 162.149 33.5078 162.727 32.9141C163.306 32.3047 164.118 32 165.165 32ZM183.131 32C184.194 32 185.014 32.3047 185.592 32.9141C186.17 33.5078 186.459 34.2578 186.459 35.1641C186.459 36.0547 186.17 36.7969 185.592 37.3906C185.014 37.9688 184.194 38.2578 183.131 38.2578C182.116 38.2578 181.311 37.9688 180.717 37.3906C180.123 36.8125 179.827 36.0703 179.827 35.1641C179.827 34.2578 180.116 33.5078 180.694 32.9141C181.272 32.3047 182.084 32 183.131 32Z" fill="url(#paint0_linear)"/>
<defs>
<linearGradient id="paint0_linear" x1="-3" y1="38" x2="193" y2="38" gradientUnits="userSpaceOnUse">
<stop stop-color="white" stop-opacity="0.381663"/>
<stop offset="0.5" stop-color="white"/>
<stop offset="1" stop-color="white" stop-opacity="0"/>
</linearGradient>
</defs>
</svg>
